<!DOCTYPE svg PUBLIC "-//W3C//DTD SVG 1.1//EN" "http://www.w3.org/Graphics/SVG/1.1/DTD/svg11.dtd">
<!-- Uploaded to: SVG Repo, www.svgrepo.com, Transformed by: SVG Repo Mixer Tools -->
<svg width="800px" height="800px" viewBox="0 -7 64 64" version="1.1" xmlns="http://www.w3.org/2000/svg" xmlns:xlink="http://www.w3.org/1999/xlink" xmlns:sketch="http://www.bohemiancoding.com/sketch/ns" fill="#34da3f" stroke="#34da3f">
<g id="SVGRepo_bgCarrier" stroke-width="0"/>
<g id="SVGRepo_tracerCarrier" stroke-linecap="round" stroke-linejoin="round"/>
<g id="SVGRepo_iconCarrier"> <title>Cart-add</title> <desc>Created with Sketch.</desc> <defs> </defs> <g id="Page-1" stroke="none" stroke-width="1" fill="none" fill-rule="evenodd" sketch:type="MSPage"> <g id="Cart-add" sketch:type="MSLayerGroup" transform="translate(1.000000, 1.000000)" stroke="#37ae37" stroke-width="2"> <path d="M26.1,40.9 L24.1,40.9 C23.1,40.9 22.3,40.1 22.3,39.1 L13.1,9.7 C13.1,8.7 8.9,7.9 0,7.9 L0,10.9" id="Shape" sketch:type="MSShapeGroup"> </path> <path d="M43.9,40.9 L36.3,40.9" id="Shape" sketch:type="MSShapeGroup"> </path> <path d="M53.5,40.9 L55.5,40.9 C56.5,40.9 57.2,40.1 57.2,39.1 L61.9,12.7 C61.9,11.7 61.1,10.9 60.2,10.9 L58.3,10.9" id="Shape" sketch:type="MSShapeGroup"> </path> <path d="M14.2,11 L42.5,11" id="Shape" sketch:type="MSShapeGroup"> </path> <ellipse id="Oval" sketch:type="MSShapeGroup" cx="31.1" cy="43" rx="5.1" ry="5"> </ellipse> <ellipse id="Oval" sketch:type="MSShapeGroup" cx="49.1" cy="43" rx="5.1" ry="5"> </ellipse> <path d="M25.4,20 L52.8,20" id="Shape" sketch:type="MSShapeGroup"> </path> <path d="M26.4,25 L51.7,25" id="Shape" sketch:type="MSShapeGroup"> </path> <path d="M28.4,30 L50.7,30" id="Shape" sketch:type="MSShapeGroup"> </path> <path d="M54.1,16 L54.1,11 L59,11 L59,5 L54,5 L54,0 L48,0 L48,5 L43,5 L43,11 L47.9,11 L47.9,16 L54.1,16 Z" id="Shape" sketch:type="MSShapeGroup"> </path> </g> </g> </g>
</svg>