<?xml version="1.0" ?>
<!-- Uploaded to: SVG Repo, www.svgrepo.com, Generator: SVG Repo Mixer Tools -->
<svg width="800px" height="800px" viewBox="0 0 512 512" version="1.1" xml:space="preserve" xmlns="http://www.w3.org/2000/svg" xmlns:xlink="http://www.w3.org/1999/xlink">
<style type="text/css">
	.st0{display:none;}
	.st1{display:inline;}
	.st2{fill:none;stroke:#B3B3B3;stroke-miterlimit:10;}
	.st3{fill:none;stroke:#ED1C24;stroke-miterlimit:10;}
	.st4{fill:#F9C04A;}
	.st5{fill:#FFFFFF;stroke:#000000;stroke-width:10;stroke-linecap:round;stroke-linejoin:round;stroke-miterlimit:10;}
	.st6{fill:#DEF6FC;}
	.st7{fill:#FFDA9F;}
	.st8{fill:#FFFFFF;}
	.st9{fill:#FF5751;}
	.st10{fill:#FF908A;}
	.st11{fill:#133260;}
	.st12{fill:#7782BB;}
	.st13{fill:#96A5D6;}
	.st14{fill:#FF5741;}
	.st15{fill:#43527A;}
	.st16{fill:#5E7296;}
	.st17{fill:none;stroke:#133260;stroke-width:9;stroke-linecap:round;stroke-linejoin:round;stroke-miterlimit:10;}
	.st18{fill:#83D689;}
	.st19{fill:#B5F4B8;}
	.st20{fill:#9BC5FF;}
	.st21{fill:#B8D8FF;}
	.st22{fill:#F24133;}
	.st23{fill:#589FFF;}
	.st24{fill:#7180BC;}
	.st25{fill:#93A3D8;}
	.st26{fill:#FF8103;}
	.st27{fill:#FF9D4D;}
	.st28{fill:#BC8D66;}
	.st29{fill:#CEA282;}
	.st30{fill:#FFDDA1;}
	.st31{fill:#FFF1DC;}
	.st32{fill:#7F6674;}
	.st33{fill:#937A89;}
	.st34{fill:#04398E;}
	.st35{fill:#A6D1FF;}
	.st36{fill:#EAA62D;}
	.st37{fill:#C5DFFF;}
	.st38{fill:#D6A47F;}
	.st39{fill:#99A4D6;}
</style>
<g class="st0" id="Layer_31">
<g class="st1">
<g>
<g>
<ellipse class="st2" cx="256" cy="256" rx="248.1" ry="248.3"/>
<path class="st2" d="M398.8,504.5H113.2c-18.8,0-34.1-15.3-34.1-34.1V41.6c0-18.8,15.3-34.1,34.1-34.1h285.5      c18.8,0,34.1,15.3,34.1,34.1v428.9C432.9,489.3,417.6,504.5,398.8,504.5z"/>
<path class="st2" d="M7.9,399.8V112.2c0-16.4,13.3-29.8,29.8-29.8h436.7c16.4,0,29.8,13.3,29.8,29.8v287.6      c0,16.4-13.3,29.8-29.8,29.8H37.6C21.2,429.6,7.9,416.2,7.9,399.8z"/>
<path class="st2" d="M440.4,469.9H71.6c-16.4,0-29.8-13.3-29.8-29.8V71.9c0-16.4,13.3-29.8,29.8-29.8h368.8      c16.4,0,29.8,13.3,29.8,29.8v368.2C470.2,456.5,456.8,469.9,440.4,469.9z"/>
</g>
<rect class="st3" height="497" transform="matrix(-1.836970e-16 1 -1 -1.836970e-16 512 5.684342e-14)" width="497" x="7.5" y="7.5"/>
</g>
</g>
</g>
<g id="Layer_32">
<g>
<g>
<path class="st4" d="M492.5,193.1H19.5c-8.2,0-14.9-6.7-14.9-14.9v-14.7c0-8.2,6.7-14.9,14.9-14.9h473.1     c8.2,0,14.9,6.7,14.9,14.9v14.7C507.5,186.4,500.8,193.1,492.5,193.1z"/>
<path class="st7" d="M19.5,148.5c-8.2,0-14.9,6.7-14.9,14.9v14.7c0,8.2,6.7,14.9,14.9,14.9h10.1v-44.6H19.5z"/>
<g>
<g>
<g>
<g>
<path class="st14" d="M251.1,59.9L251.1,59.9c-7.1-8-19.3-8.7-27.3-1.6l-100,88.1c-9,7.9-8.9,22,0.1,29.9l0,0         c7.5,6.5,18.7,6.4,26.2-0.2l99.4-88.9C257.5,80.1,258.2,67.9,251.1,59.9z"/>
</g>
</g>
</g>
<g>
<g>
<g>
<path class="st14" d="M260.9,59.9L260.9,59.9c7.1-8,19.3-8.7,27.3-1.6l100,88.1c9,7.9,8.9,22-0.1,29.9l0,0         c-7.5,6.5-18.7,6.4-26.2-0.2l-99.4-88.9C254.5,80.1,253.8,67.9,260.9,59.9z"/>
</g>
</g>
</g>
</g>
</g>
<path class="st14" d="M39,193.1l33.1,223.1c3.6,24.3,24.5,42.3,49.1,42.3h269.7c24.6,0,45.5-18,49.1-42.3L473,193.1H39z     M151.7,412.9c-7.7,0.9-14.7-4.5-15.7-12.3l-19-155.6c-0.9-7.7,4.5-14.7,12.3-15.7c7.7-0.9,14.7,4.5,15.7,12.3l19,155.6    C164.9,405,159.4,412,151.7,412.9z M270.1,399.6c0,7.8-6.3,14.1-14.1,14.1h0c-7.8,0-14.1-6.3-14.1-14.1V242.8    c0-7.8,6.3-14.1,14.1-14.1h0c7.8,0,14.1,6.3,14.1,14.1V399.6z M395,245.1l-19,155.6c-0.9,7.7-8,13.2-15.7,12.3    c-7.7-0.9-13.2-8-12.3-15.7l19-155.6c0.9-7.7,8-13.2,15.7-12.3C390.4,230.4,395.9,237.4,395,245.1z"/>
<g>
<path class="st10" d="M97.9,416.2L64.8,193.1H39l33.1,223.1c3.6,24.3,24.5,42.3,49.1,42.3H147     C122.4,458.6,101.5,440.5,97.9,416.2z"/>
</g>
<g>
<path class="st11" d="M131.5,401.2c0.6,4.9,3.1,9.3,7,12.4c3.3,2.6,7.3,4,11.4,4c0.8,0,1.5,0,2.3-0.1     c10.2-1.2,17.4-10.5,16.2-20.7l-19-155.6c-0.6-4.9-3.1-9.3-7-12.4c-3.9-3.1-8.8-4.4-13.7-3.8c-10.2,1.2-17.4,10.5-16.2,20.7     L131.5,401.2z M129.8,233.9c0.4,0,0.8-0.1,1.2-0.1c2.1,0,4.2,0.7,5.9,2c2,1.6,3.3,3.8,3.6,6.4l19,155.6c0.6,5.2-3.1,10-8.3,10.6     c-2.5,0.3-5-0.4-7-2c-2-1.6-3.3-3.8-3.6-6.4l-19-155.6C120.9,239.4,124.6,234.6,129.8,233.9z"/>
<path class="st11" d="M256,418.1c10.2,0,18.6-8.3,18.6-18.6V242.8c0-10.2-8.3-18.6-18.6-18.6s-18.6,8.3-18.6,18.6v156.7     C237.4,409.8,245.8,418.1,256,418.1z M246.5,242.8c0-5.3,4.3-9.5,9.5-9.5c5.3,0,9.5,4.3,9.5,9.5v156.7c0,5.3-4.3,9.5-9.5,9.5     c-5.3,0-9.5-4.3-9.5-9.5V242.8z"/>
<path class="st11" d="M359.8,417.4c0.8,0.1,1.5,0.1,2.3,0.1c4.1,0,8.1-1.4,11.4-4c3.9-3.1,6.4-7.5,7-12.4l19-155.6v0     c1.2-10.2-6-19.5-16.2-20.7c-4.9-0.6-9.8,0.8-13.7,3.8c-3.9,3.1-6.4,7.5-7,12.4l-19,155.6C342.3,406.9,349.6,416.2,359.8,417.4z      M352.6,397.8l19-155.6c0.3-2.5,1.6-4.8,3.6-6.4c1.7-1.3,3.7-2,5.9-2c0.4,0,0.8,0,1.2,0.1c5.2,0.6,9,5.4,8.3,10.6v0l-19,155.6     c-0.3,2.5-1.6,4.8-3.6,6.4c-2,1.6-4.5,2.3-7,2C355.7,407.8,351.9,403.1,352.6,397.8z"/>
<path class="st11" d="M492.5,144H392.2c-0.3-0.3-0.6-0.6-1-0.9L291.2,55c-9.8-8.8-24.9-7.9-33.7,1.9c-0.6,0.6-1.1,1.3-1.5,1.9     c-0.5-0.7-1-1.3-1.5-1.9c-8.8-9.8-23.9-10.7-33.7-1.9l-100,88.1c-0.3,0.3-0.7,0.6-1,0.9H19.5C8.7,144,0,152.7,0,163.4v14.7     c0,10.7,8.7,19.5,19.5,19.5h15.7l32.5,219.3c1.9,12.8,8.4,24.6,18.2,33.1c9.8,8.5,22.4,13.1,35.4,13.1h269.7     c13,0,25.5-4.7,35.4-13.1c9.8-8.5,16.3-20.2,18.2-33.1l32.5-219.3h15.7c10.7,0,19.5-8.7,19.5-19.5v-14.7     C512,152.7,503.3,144,492.5,144z M264.3,62.9c5.4-6.1,14.8-6.6,21-1.2l100,88.1c3.3,2.9,5.2,7.1,5.2,11.6c0,4.4-2,8.6-5.3,11.5     c-5.8,5-14.5,4.9-20.2-0.2l-99.4-88.9C259.4,78.4,258.8,69,264.3,62.9z M256,86.8c1,1.4,2.1,2.7,3.5,3.8l59.7,53.4H192.8     l59.7-53.4C253.9,89.4,255,88.1,256,86.8z M126.8,149.9l100-88.1c2.8-2.5,6.4-3.8,9.9-3.8c4.1,0,8.1,1.7,11.1,4.9     c5.4,6.1,4.9,15.5-1.2,20.9l-99.4,88.9c-5.7,5.1-14.4,5.2-20.2,0.2c-3.3-2.9-5.3-7.1-5.3-11.5C121.6,157,123.5,152.8,126.8,149.9     z M435.4,415.5c-3.3,21.9-22.4,38.5-44.6,38.5H121.2c-22.2,0-41.4-16.5-44.6-38.5l-32.3-218h423.5L435.4,415.5z M503,178.1     c0,5.7-4.7,10.4-10.4,10.4H19.5c-5.7,0-10.4-4.7-10.4-10.4v-14.7c0-5.7,4.7-10.4,10.4-10.4H114c-1,2.7-1.5,5.5-1.5,8.4     c0,7,3.1,13.7,8.4,18.3c4.6,3.9,10.2,5.9,15.9,5.9c5.8,0,11.6-2.1,16.2-6.2l29.6-26.5h146.6l29.6,26.5c4.6,4.1,10.4,6.2,16.2,6.2     c5.7,0,11.4-2,15.9-5.9c5.3-4.6,8.4-11.3,8.4-18.3c0-2.9-0.5-5.8-1.5-8.4h94.6c5.7,0,10.4,4.7,10.4,10.4V178.1z"/>
</g>
</g>
</g>
</svg>